<svg width="33" height="33" viewBox="0 0 33 33" fill="none" xmlns="http://www.w3.org/2000/svg">
<ellipse cx="22.8107" cy="18.6594" rx="3.44421" ry="3.44421" transform="rotate(18.3717 22.8107 18.6594)" fill="#0F65E6"/>
<ellipse cx="18.4441" cy="9.95113" rx="3.44421" ry="3.44421" transform="rotate(18.3717 18.4441 9.95113)" fill="white"/>
<ellipse cx="9.73609" cy="14.3173" rx="3.44421" ry="3.44421" transform="rotate(18.3717 9.73609 14.3173)" fill="#EF4D2A"/>
<ellipse cx="14.1022" cy="23.0256" rx="3.44421" ry="3.44421" transform="rotate(18.3717 14.1022 23.0256)" fill="white"/>
<path fill-rule="evenodd" clip-rule="evenodd" d="M9.9021 0.430526C9.9021 0.192753 9.70935 0 9.47157 0H5.16631C2.31304 0 0 2.31304 0 5.16631V9.47157C0 9.70935 0.192753 9.9021 0.430526 9.9021H2.15263C2.3904 9.9021 2.58316 9.70935 2.58316 9.47157V5.16631C2.58316 3.73968 3.73968 2.58316 5.16631 2.58316H9.47157C9.70935 2.58316 9.9021 2.3904 9.9021 2.15263V0.430526ZM9.9021 30.5674C9.9021 30.3296 9.70935 30.1368 9.47157 30.1368H5.16631C3.73968 30.1368 2.58316 28.9803 2.58316 27.5537V23.2484C2.58316 23.0106 2.3904 22.8179 2.15263 22.8179H0.430526C0.192753 22.8179 0 23.0106 0 23.2484V27.5537C0 30.4069 2.31304 32.72 5.16631 32.72H9.47157C9.70935 32.72 9.9021 32.5272 9.9021 32.2895V30.5674ZM23.2484 32.72C23.0106 32.72 22.8179 32.5272 22.8179 32.2895V30.5674C22.8179 30.3296 23.0106 30.1368 23.2484 30.1368H27.5537C28.9803 30.1368 30.1368 28.9803 30.1368 27.5537V23.2484C30.1368 23.0106 30.3296 22.8179 30.5674 22.8179H32.2895C32.5272 22.8179 32.72 23.0106 32.72 23.2484V27.5537C32.72 30.4069 30.4069 32.72 27.5537 32.72H23.2484ZM23.2484 2.58316C23.0106 2.58316 22.8179 2.3904 22.8179 2.15263V0.430526C22.8179 0.192753 23.0106 0 23.2484 0H27.5537C30.4069 0 32.72 2.31304 32.72 5.16631V9.47157C32.72 9.70935 32.5272 9.9021 32.2895 9.9021H30.5674C30.3296 9.9021 30.1368 9.70935 30.1368 9.47157V5.16631C30.1368 3.73968 28.9803 2.58316 27.5537 2.58316H23.2484Z" fill="white"/>
</svg>
