<svg width="40" height="40" viewBox="0 0 40 40" fill="none" xmlns="http://www.w3.org/2000/svg">
<g id="Group 92">
<circle id="Ellipse 204" cx="20" cy="20" r="20" fill="white"/>
<g id="Group 18">
<ellipse id="Ellipse 13" cx="24.7644" cy="21.7332" rx="2.51493" ry="2.51493" transform="rotate(18.3717 24.7644 21.7332)" fill="#3064E9"/>
<ellipse id="Ellipse 14" cx="21.5761" cy="15.3743" rx="2.51493" ry="2.51493" transform="rotate(18.3717 21.5761 15.3743)" fill="#1C1C1D"/>
<ellipse id="Ellipse 15" cx="15.2171" cy="18.5625" rx="2.51493" ry="2.51493" transform="rotate(18.3717 15.2171 18.5625)" fill="#DE4A2A"/>
<ellipse id="Ellipse 16" cx="18.4054" cy="24.9213" rx="2.51493" ry="2.51493" transform="rotate(18.3717 18.4054 24.9213)" fill="#1C1C1D"/>
<path id="Subtract" fill-rule="evenodd" clip-rule="evenodd" d="M15.3386 8.42258C15.3386 8.24896 15.1978 8.10822 15.0242 8.10822H11.8805C9.79711 8.10822 8.10815 9.79717 8.10815 11.8806V15.0243C8.10815 15.1979 8.2489 15.3386 8.42252 15.3386H9.67998C9.8536 15.3386 9.99435 15.1979 9.99435 15.0243V11.8806C9.99435 10.8389 10.8388 9.99441 11.8805 9.99441H15.0242C15.1978 9.99441 15.3386 9.85366 15.3386 9.68005V8.42258ZM15.3386 30.4282C15.3386 30.2546 15.1978 30.1138 15.0242 30.1138H11.8805C10.8388 30.1138 9.99435 29.2694 9.99435 28.2276V25.084C9.99435 24.9104 9.8536 24.7696 9.67998 24.7696H8.42252C8.2489 24.7696 8.10815 24.9104 8.10815 25.084V28.2276C8.10815 30.3111 9.79711 32 11.8805 32H15.0242C15.1978 32 15.3386 31.8593 15.3386 31.6857V30.4282ZM25.0839 32C24.9103 32 24.7695 31.8593 24.7695 31.6857V30.4282C24.7695 30.2546 24.9103 30.1138 25.0839 30.1138H28.2276C29.2693 30.1138 30.1138 29.2694 30.1138 28.2276V25.084C30.1138 24.9104 30.2545 24.7696 30.4281 24.7696H31.6856C31.8592 24.7696 32 24.9104 32 25.084V28.2276C32 30.3111 30.311 32 28.2276 32H25.0839ZM25.0839 9.99441C24.9103 9.99441 24.7696 9.85366 24.7696 9.68005V8.42258C24.7696 8.24896 24.9103 8.10822 25.0839 8.10822H28.2276C30.311 8.10822 32 9.79717 32 11.8806V15.0243C32 15.1979 31.8592 15.3386 31.6856 15.3386H30.4281C30.2545 15.3386 30.1138 15.1979 30.1138 15.0243V11.8806C30.1138 10.8389 29.2693 9.99441 28.2276 9.99441H25.0839Z" fill="#1C1C1D"/>
</g>
</g>
</svg>
