<svg width="157" height="34" viewBox="0 0 157 34" fill="none" xmlns="http://www.w3.org/2000/svg">
<path d="M53.0715 9.01673L47.6042 24.4304H42.9055L37.4382 9.01673H41.4344L45.2548 20.6538L49.0973 9.01673H53.0715ZM56.529 10.905C55.8703 10.905 55.3287 10.7147 54.9042 10.3341C54.4943 9.93891 54.2894 9.45586 54.2894 8.88498C54.2894 8.29947 54.4943 7.81642 54.9042 7.43583C55.3287 7.04061 55.8703 6.843 56.529 6.843C57.1731 6.843 57.7 7.04061 58.1099 7.43583C58.5344 7.81642 58.7466 8.29947 58.7466 8.88498C58.7466 9.45586 58.5344 9.93891 58.1099 10.3341C57.7 10.7147 57.1731 10.905 56.529 10.905ZM58.3953 12.1785V24.4304H54.6407V12.1785H58.3953ZM64.8709 14.2205C65.31 13.5472 65.8589 13.0202 66.5176 12.6396C67.1763 12.2444 67.9082 12.0468 68.7133 12.0468V16.021H67.6813C66.7445 16.021 66.0419 16.2259 65.5735 16.6357C65.1051 17.031 64.8709 17.7336 64.8709 18.7436V24.4304H61.1163V12.1785H64.8709V14.2205ZM69.7614 18.2825C69.7614 17.0236 69.9956 15.9185 70.464 14.967C70.9471 14.0156 71.5985 13.2837 72.4182 12.7713C73.2379 12.259 74.1528 12.0029 75.1628 12.0029C76.0264 12.0029 76.7803 12.1785 77.4243 12.5298C78.083 12.8811 78.5881 13.3422 78.9394 13.9131V12.1785H82.694V24.4304H78.9394V22.6958C78.5734 23.2667 78.0611 23.7278 77.4024 24.0791C76.7583 24.4304 76.0045 24.6061 75.1408 24.6061C74.1455 24.6061 73.2379 24.3499 72.4182 23.8376C71.5985 23.3106 70.9471 22.5714 70.464 21.6199C69.9956 20.6538 69.7614 19.5414 69.7614 18.2825ZM78.9394 18.3045C78.9394 17.3676 78.6759 16.6284 78.1489 16.0868C77.6366 15.5452 77.0072 15.2744 76.2606 15.2744C75.5141 15.2744 74.8774 15.5452 74.3504 16.0868C73.8381 16.6138 73.5819 17.3457 73.5819 18.2825C73.5819 19.2193 73.8381 19.9659 74.3504 20.5221C74.8774 21.0637 75.5141 21.3345 76.2606 21.3345C77.0072 21.3345 77.6366 21.0637 78.1489 20.5221C78.6759 19.9805 78.9394 19.2413 78.9394 18.3045ZM89.1649 8.18237V24.4304H85.4103V8.18237H89.1649ZM107.495 13.7155C107.495 14.4913 107.312 15.2232 106.946 15.9112C106.58 16.5992 105.995 17.1627 105.19 17.6018C104.385 18.0263 103.353 18.2386 102.094 18.2386H99.3273V24.4304H96.8242V9.17042H102.094C103.265 9.17042 104.253 9.37535 105.058 9.78521C105.878 10.1804 106.485 10.722 106.88 11.41C107.29 12.098 107.495 12.8665 107.495 13.7155ZM102.094 16.1966C103.045 16.1966 103.755 15.9844 104.224 15.5599C104.692 15.1207 104.926 14.5059 104.926 13.7155C104.926 12.0468 103.982 11.2124 102.094 11.2124H99.3273V16.1966H102.094ZM112.386 8.18237V24.4304H109.883V8.18237H112.386ZM114.838 18.3264C114.838 17.1115 115.086 16.0356 115.584 15.0988C116.096 14.1619 116.784 13.4374 117.648 12.925C118.526 12.3981 119.492 12.1346 120.546 12.1346C121.498 12.1346 122.325 12.3249 123.027 12.7055C123.745 13.0714 124.316 13.5325 124.74 14.0888V12.3322H127.265V24.4304H124.74V22.63C124.316 23.2008 123.737 23.6766 123.006 24.0572C122.274 24.4377 121.439 24.628 120.502 24.628C119.463 24.628 118.512 24.3645 117.648 23.8376C116.784 23.296 116.096 22.5495 115.584 21.598C115.086 20.6319 114.838 19.5414 114.838 18.3264ZM124.74 18.3703C124.74 17.536 124.564 16.8114 124.213 16.1966C123.876 15.5818 123.43 15.1134 122.874 14.7914C122.318 14.4693 121.717 14.3083 121.073 14.3083C120.429 14.3083 119.829 14.4693 119.273 14.7914C118.717 15.0988 118.263 15.5599 117.912 16.1747C117.575 16.7748 117.407 17.4921 117.407 18.3264C117.407 19.1608 117.575 19.8927 117.912 20.5221C118.263 21.1515 118.717 21.6346 119.273 21.9713C119.844 22.2933 120.444 22.4543 121.073 22.4543C121.717 22.4543 122.318 22.2933 122.874 21.9713C123.43 21.6492 123.876 21.1808 124.213 20.566C124.564 19.9366 124.74 19.2047 124.74 18.3703ZM129.718 18.3703C129.718 17.1261 129.967 16.0356 130.465 15.0988C130.977 14.1473 131.68 13.4154 132.573 12.9031C133.466 12.3908 134.49 12.1346 135.647 12.1346C137.111 12.1346 138.318 12.4859 139.27 13.1885C140.236 13.8765 140.887 14.8646 141.224 16.1527H138.523C138.304 15.5525 137.952 15.0841 137.469 14.7475C136.986 14.4108 136.379 14.2425 135.647 14.2425C134.622 14.2425 133.802 14.6084 133.188 15.3403C132.588 16.0575 132.287 17.0676 132.287 18.3703C132.287 19.6731 132.588 20.6904 133.188 21.4223C133.802 22.1542 134.622 22.5202 135.647 22.5202C137.096 22.5202 138.055 21.8834 138.523 20.6099H141.224C140.873 21.8395 140.214 22.8203 139.248 23.5521C138.282 24.2694 137.081 24.628 135.647 24.628C134.49 24.628 133.466 24.3719 132.573 23.8595C131.68 23.3326 130.977 22.6007 130.465 21.6639C129.967 20.7124 129.718 19.6146 129.718 18.3703ZM154.807 18.0849C154.807 18.5387 154.777 18.9485 154.719 19.3145H145.475C145.548 20.2806 145.907 21.0564 146.551 21.6419C147.195 22.2274 147.985 22.5202 148.922 22.5202C150.269 22.5202 151.22 21.9566 151.777 20.8295H154.477C154.111 21.942 153.445 22.8568 152.479 23.5741C151.528 24.2767 150.342 24.628 148.922 24.628C147.766 24.628 146.726 24.3719 145.804 23.8595C144.897 23.3326 144.179 22.6007 143.652 21.6639C143.14 20.7124 142.884 19.6146 142.884 18.3703C142.884 17.1261 143.133 16.0356 143.631 15.0988C144.143 14.1473 144.853 13.4154 145.76 12.9031C146.683 12.3908 147.736 12.1346 148.922 12.1346C150.064 12.1346 151.081 12.3834 151.974 12.8811C152.867 13.3788 153.562 14.0814 154.06 14.989C154.558 15.8819 154.807 16.9139 154.807 18.0849ZM152.194 17.2945C152.179 16.3723 151.85 15.6331 151.206 15.0768C150.562 14.5206 149.764 14.2425 148.812 14.2425C147.949 14.2425 147.209 14.5206 146.595 15.0768C145.98 15.6184 145.614 16.3576 145.497 17.2945H152.194Z" fill="#1C1C1D"/>
<ellipse cx="22.8107" cy="18.6594" rx="3.44421" ry="3.44421" transform="rotate(18.3717 22.8107 18.6594)" fill="#0F65E6"/>
<ellipse cx="18.4441" cy="9.95113" rx="3.44421" ry="3.44421" transform="rotate(18.3717 18.4441 9.95113)" fill="#1C1C1D"/>
<ellipse cx="9.73609" cy="14.3173" rx="3.44421" ry="3.44421" transform="rotate(18.3717 9.73609 14.3173)" fill="#EF4D2A"/>
<ellipse cx="14.1022" cy="23.0256" rx="3.44421" ry="3.44421" transform="rotate(18.3717 14.1022 23.0256)" fill="#1C1C1D"/>
<path fill-rule="evenodd" clip-rule="evenodd" d="M9.9021 0.430526C9.9021 0.192753 9.70935 0 9.47157 0H5.16631C2.31304 0 0 2.31304 0 5.16631V9.47157C0 9.70935 0.192753 9.9021 0.430526 9.9021H2.15263C2.3904 9.9021 2.58316 9.70935 2.58316 9.47157V5.16631C2.58316 3.73968 3.73968 2.58316 5.16631 2.58316H9.47157C9.70935 2.58316 9.9021 2.3904 9.9021 2.15263V0.430526ZM9.9021 30.5674C9.9021 30.3296 9.70935 30.1368 9.47157 30.1368H5.16631C3.73968 30.1368 2.58316 28.9803 2.58316 27.5537V23.2484C2.58316 23.0106 2.3904 22.8179 2.15263 22.8179H0.430526C0.192753 22.8179 0 23.0106 0 23.2484V27.5537C0 30.4069 2.31304 32.72 5.16631 32.72H9.47157C9.70935 32.72 9.9021 32.5272 9.9021 32.2895V30.5674ZM23.2484 32.72C23.0106 32.72 22.8179 32.5272 22.8179 32.2895V30.5674C22.8179 30.3296 23.0106 30.1368 23.2484 30.1368H27.5537C28.9803 30.1368 30.1368 28.9803 30.1368 27.5537V23.2484C30.1368 23.0106 30.3296 22.8179 30.5674 22.8179H32.2895C32.5272 22.8179 32.72 23.0106 32.72 23.2484V27.5537C32.72 30.4069 30.4069 32.72 27.5537 32.72H23.2484ZM23.2484 2.58316C23.0106 2.58316 22.8179 2.3904 22.8179 2.15263V0.430526C22.8179 0.192753 23.0106 0 23.2484 0H27.5537C30.4069 0 32.72 2.31304 32.72 5.16631V9.47157C32.72 9.70935 32.5272 9.9021 32.2895 9.9021H30.5674C30.3296 9.9021 30.1368 9.70935 30.1368 9.47157V5.16631C30.1368 3.73968 28.9803 2.58316 27.5537 2.58316H23.2484Z" fill="#1C1C1D"/>
</svg>
