<svg width="220" height="47" viewBox="0 0 220 47" fill="none" xmlns="http://www.w3.org/2000/svg">
<path d="M74.4362 13.1833L66.768 34.802H60.1777L52.5095 13.1833H58.1144L63.4729 29.5051L68.8621 13.1833H74.4362ZM79.2856 15.8317C78.3617 15.8317 77.6021 15.5649 77.0067 15.0311C76.4318 14.4767 76.1444 13.7992 76.1444 12.9985C76.1444 12.1773 76.4318 11.4998 77.0067 10.966C77.6021 10.4117 78.3617 10.1345 79.2856 10.1345C80.1889 10.1345 80.928 10.4117 81.5029 10.966C82.0983 11.4998 82.3959 12.1773 82.3959 12.9985C82.3959 13.7992 82.0983 14.4767 81.5029 15.0311C80.928 15.5649 80.1889 15.8317 79.2856 15.8317ZM81.9032 17.6179V34.802H76.6371V17.6179H81.9032ZM90.9856 20.4819C91.6015 19.5375 92.3714 18.7984 93.2953 18.2646C94.2192 17.7103 95.2457 17.4331 96.3749 17.4331V23.0072H94.9275C93.6135 23.0072 92.628 23.2946 91.9711 23.8695C91.3141 24.4238 90.9856 25.4093 90.9856 26.8259V34.802H85.7195V17.6179H90.9856V20.4819ZM97.8449 26.1792C97.8449 24.4135 98.1734 22.8635 98.8304 21.529C99.5079 20.1945 100.421 19.168 101.571 18.4494C102.721 17.7308 104.004 17.3715 105.421 17.3715C106.632 17.3715 107.689 17.6179 108.593 18.1106C109.517 18.6034 110.225 19.2501 110.718 20.0508V17.6179H115.984V34.802H110.718V32.3691C110.204 33.1698 109.486 33.8165 108.562 34.3093C107.659 34.802 106.601 35.0484 105.39 35.0484C103.994 35.0484 102.721 34.6891 101.571 33.9705C100.421 33.2314 99.5079 32.1946 98.8304 30.8601C98.1734 29.5051 97.8449 27.9448 97.8449 26.1792ZM110.718 26.21C110.718 24.896 110.348 23.8592 109.609 23.0996C108.89 22.3399 108.008 21.9601 106.96 21.9601C105.913 21.9601 105.02 22.3399 104.281 23.0996C103.563 23.8387 103.203 24.8652 103.203 26.1792C103.203 27.4931 103.563 28.5402 104.281 29.3203C105.02 30.08 105.913 30.4598 106.96 30.4598C108.008 30.4598 108.89 30.08 109.609 29.3203C110.348 28.5607 110.718 27.5239 110.718 26.21ZM125.06 12.0131V34.802H119.793V12.0131H125.06ZM150.769 19.7736C150.769 20.8617 150.512 21.8883 149.999 22.8532C149.486 23.8181 148.665 24.6086 147.535 25.2245C146.406 25.8199 144.959 26.1176 143.193 26.1176H139.313V34.802H135.802V13.3989H143.193C144.836 13.3989 146.221 13.6863 147.351 14.2612C148.5 14.8155 149.352 15.5751 149.907 16.5401C150.482 17.505 150.769 18.5828 150.769 19.7736ZM143.193 23.2536C144.528 23.2536 145.523 22.9559 146.18 22.3605C146.837 21.7446 147.166 20.8823 147.166 19.7736C147.166 17.4331 145.842 16.2629 143.193 16.2629H139.313V23.2536H143.193ZM157.628 12.0131V34.802H154.117V12.0131H157.628ZM161.067 26.2408C161.067 24.5367 161.416 23.0277 162.114 21.7138C162.833 20.3998 163.798 19.3835 165.009 18.665C166.241 17.9259 167.596 17.5563 169.074 17.5563C170.409 17.5563 171.569 17.8232 172.554 18.357C173.56 18.8703 174.361 19.517 174.956 20.2971V17.8335H178.498V34.802H174.956V32.2767C174.361 33.0774 173.55 33.7447 172.523 34.2785C171.497 34.8123 170.326 35.0792 169.012 35.0792C167.555 35.0792 166.22 34.7096 165.009 33.9705C163.798 33.2109 162.833 32.1638 162.114 30.8293C161.416 29.4743 161.067 27.9448 161.067 26.2408ZM174.956 26.3023C174.956 25.1321 174.71 24.1158 174.217 23.2536C173.745 22.3913 173.119 21.7343 172.338 21.2826C171.558 20.8309 170.716 20.6051 169.813 20.6051C168.91 20.6051 168.068 20.8309 167.288 21.2826C166.508 21.7138 165.871 22.3605 165.379 23.2228C164.906 24.0645 164.67 25.0705 164.67 26.2408C164.67 27.411 164.906 28.4375 165.379 29.3203C165.871 30.2032 166.508 30.8807 167.288 31.3529C168.089 31.8045 168.93 32.0304 169.813 32.0304C170.716 32.0304 171.558 31.8045 172.338 31.3529C173.119 30.9012 173.745 30.2442 174.217 29.3819C174.71 28.4991 174.956 27.4726 174.956 26.3023ZM181.939 26.3023C181.939 24.5572 182.288 23.0277 182.986 21.7138C183.704 20.3793 184.69 19.3527 185.942 18.6342C187.194 17.9156 188.631 17.5563 190.253 17.5563C192.306 17.5563 194 18.0491 195.335 19.0345C196.69 19.9995 197.603 21.3853 198.076 23.192H194.288C193.98 22.3502 193.487 21.6932 192.809 21.221C192.132 20.7488 191.28 20.5127 190.253 20.5127C188.816 20.5127 187.667 21.026 186.804 22.0525C185.963 23.0585 185.542 24.4751 185.542 26.3023C185.542 28.1296 185.963 29.5564 186.804 30.583C187.667 31.6095 188.816 32.1228 190.253 32.1228C192.286 32.1228 193.631 31.2297 194.288 29.4435H198.076C197.583 31.1681 196.659 32.5436 195.304 33.5702C193.949 34.5762 192.265 35.0792 190.253 35.0792C188.631 35.0792 187.194 34.7199 185.942 34.0013C184.69 33.2622 183.704 32.2357 182.986 30.9217C182.288 29.5872 181.939 28.0474 181.939 26.3023ZM217.126 25.902C217.126 26.5384 217.085 27.1133 217.003 27.6266H204.038C204.141 28.9816 204.644 30.0697 205.547 30.8909C206.45 31.7122 207.559 32.1228 208.873 32.1228C210.762 32.1228 212.096 31.3323 212.876 29.7515H216.664C216.151 31.3118 215.217 32.595 213.862 33.601C212.527 34.5864 210.864 35.0792 208.873 35.0792C207.251 35.0792 205.793 34.7199 204.5 34.0013C203.227 33.2622 202.221 32.2357 201.482 30.9217C200.763 29.5872 200.404 28.0474 200.404 26.3023C200.404 24.5572 200.753 23.0277 201.451 21.7138C202.17 20.3793 203.165 19.3527 204.438 18.6342C205.732 17.9156 207.21 17.5563 208.873 17.5563C210.474 17.5563 211.901 17.9053 213.154 18.6034C214.406 19.3014 215.381 20.2869 216.079 21.5598C216.777 22.8121 217.126 24.2596 217.126 25.902ZM213.461 24.7933C213.441 23.4999 212.979 22.4631 212.076 21.683C211.172 20.9028 210.053 20.5127 208.719 20.5127C207.508 20.5127 206.471 20.9028 205.609 21.683C204.746 22.4426 204.233 23.4794 204.069 24.7933H213.461Z" fill="white"/>
<ellipse cx="31.9932" cy="26.3693" rx="4.83072" ry="4.83072" transform="rotate(18.3717 31.9932 26.3693)" fill="#3064E9"/>
<ellipse cx="25.8693" cy="14.1552" rx="4.83072" ry="4.83072" transform="rotate(18.3717 25.8693 14.1552)" fill="white"/>
<ellipse cx="13.6552" cy="20.2791" rx="4.83072" ry="4.83072" transform="rotate(18.3717 13.6552 20.2791)" fill="#DE4A2A"/>
<ellipse cx="19.7792" cy="32.4932" rx="4.83072" ry="4.83072" transform="rotate(18.3717 19.7792 32.4932)" fill="white"/>
<path fill-rule="evenodd" clip-rule="evenodd" d="M13.8883 0.801961C13.8883 0.468469 13.618 0.19812 13.2845 0.19812H7.24609C3.24418 0.19812 0 3.4423 0 7.44421V13.4826C0 13.8161 0.270349 14.0865 0.603841 14.0865H3.0192C3.35269 14.0865 3.62304 13.8161 3.62304 13.4826V7.44421C3.62304 5.44325 5.24513 3.82116 7.24609 3.82116H13.2845C13.618 3.82116 13.8883 3.55081 13.8883 3.21732V0.801961ZM13.8883 43.0708C13.8883 42.7373 13.618 42.467 13.2845 42.467H7.24609C5.24513 42.467 3.62304 40.8449 3.62304 38.8439V32.8055C3.62304 32.472 3.35269 32.2017 3.0192 32.2017H0.603841C0.270349 32.2017 0 32.472 0 32.8055V38.8439C0 42.8458 3.24418 46.09 7.24609 46.09H13.2845C13.618 46.09 13.8883 45.8196 13.8883 45.4862V43.0708ZM32.6074 46.09C32.2739 46.09 32.0035 45.8196 32.0035 45.4862V43.0708C32.0035 42.7373 32.2739 42.467 32.6074 42.467H38.6458C40.6467 42.467 42.2688 40.8449 42.2688 38.8439V32.8055C42.2688 32.472 42.5392 32.2017 42.8727 32.2017H45.288C45.6215 32.2017 45.8919 32.472 45.8919 32.8055V38.8439C45.8919 42.8458 42.6477 46.09 38.6458 46.09H32.6074ZM32.6074 3.82116C32.2739 3.82116 32.0035 3.55081 32.0035 3.21732V0.801961C32.0035 0.468469 32.2739 0.19812 32.6074 0.19812H38.6458C42.6477 0.19812 45.8919 3.4423 45.8919 7.44421V13.4826C45.8919 13.8161 45.6215 14.0865 45.288 14.0865H42.8727C42.5392 14.0865 42.2688 13.8161 42.2688 13.4826V7.44421C42.2688 5.44325 40.6467 3.82116 38.6458 3.82116H32.6074Z" fill="white"/>
</svg>
